HIERARCHY
ROOT Hips
{
	OFFSET 0.000000 0.000000 0.000000
	CHANNELS 6 Xposition Yposition Zposition Zrotation Yrotation Xrotation 
	JOINT LHipJoint
	{
		OFFSET 0.000000 0.000000 0.000000
		CHANNELS 3 Zrotation Yrotation Xrotation
		JOINT LeftUpLeg
		{
			OFFSET 1.363060 -1.794630 0.839290
			CHANNELS 3 Zrotation Yrotation Xrotation
			JOINT LeftLeg
			{
				OFFSET 2.448110 -6.726130 0.000000
				CHANNELS 3 Zrotation Yrotation Xrotation
				JOINT LeftFoot
				{
					OFFSET 2.562200 -7.039590 0.000000
					CHANNELS 3 Zrotation Yrotation Xrotation
					JOINT LeftToeBase
					{
						OFFSET 0.157640 -0.433110 2.322550
						CHANNELS 3 Zrotation Yrotation Xrotation
						End Site
						{
							OFFSET 0.000000 0.000000 0.000000
						}
					}
				}
			}
		}
	}
	JOINT RHipJoint
	{
		OFFSET 0.000000 0.000000 0.000000
		CHANNELS 3 Zrotation Yrotation Xrotation
		JOINT RightUpLeg
		{
			OFFSET -1.305520 -1.794630 0.839290
			CHANNELS 3 Zrotation Yrotation Xrotation
			JOINT RightLeg
			{
				OFFSET -2.542530 -6.985550 0.000000
				CHANNELS 3 Zrotation Yrotation Xrotation
				JOINT RightFoot
				{
					OFFSET -2.568260 -7.056230 0.000000
					CHANNELS 3 Zrotation Yrotation Xrotation
					JOINT RightToeBase
					{
						OFFSET -0.164730 -0.452590 2.363150
						CHANNELS 3 Zrotation Yrotation Xrotation
						End Site
						{
							OFFSET 0.000000 0.000000 0.000000
						}
					}
				}
			}
		}
	}
	JOINT LowerBack
	{
		OFFSET 0.000000 0.000000 0.000000
		CHANNELS 3 Zrotation Yrotation Xrotation
		JOINT Spine
		{
			OFFSET 0.028270 2.035590 -0.193380
			CHANNELS 3 Zrotation Yrotation Xrotation
			JOINT Spine1
			{
				OFFSET 0.056720 2.048850 -0.042750
				CHANNELS 3 Zrotation Yrotation Xrotation
				JOINT Neck
				{
					OFFSET 0.000000 0.000000 0.000000
					CHANNELS 3 Zrotation Yrotation Xrotation
					JOINT Neck1
					{
						OFFSET -0.054170 1.746240 0.172020
						CHANNELS 3 Zrotation Yrotation Xrotation
						JOINT Head
						{
							OFFSET 0.104070 1.761360 -0.123970
							CHANNELS 3 Zrotation Yrotation Xrotation
							End Site
							{
								OFFSET 0.000000 0.000000 0.000000
							}
						}
					}
				}
				JOINT LeftShoulder
				{
					OFFSET 0.000000 0.000000 0.000000
					CHANNELS 3 Zrotation Yrotation Xrotation
					JOINT LeftArm
					{
						OFFSET 3.362410 1.200890 -0.311210
						CHANNELS 3 Zrotation Yrotation Xrotation
						JOINT LeftForeArm
						{
							OFFSET 4.983000 -0.000000 -0.000000
							CHANNELS 3 Zrotation Yrotation Xrotation
							JOINT LeftHand
							{
								OFFSET 3.483560 -0.000000 -0.000000
								CHANNELS 3 Zrotation Yrotation Xrotation
								JOINT LeftFingerBase
								{
									OFFSET 0.000000 0.000000 0.000000
									CHANNELS 3 Zrotation Yrotation Xrotation
									JOINT LeftHandIndex1
									{
										OFFSET 0.715260 -0.000000 -0.000000
										CHANNELS 3 Zrotation Yrotation Xrotation
										End Site
										{
											OFFSET 0.000000 0.000000 0.000000
										}
									}
								}
								JOINT LThumb
								{
									OFFSET 0.000000 0.000000 0.000000
									CHANNELS 3 Zrotation Yrotation Xrotation
									End Site
									{
										OFFSET 0.000000 0.000000 0.000000
									}
								}
							}
						}
					}
				}
				JOINT RightShoulder
				{
					OFFSET 0.000000 0.000000 0.000000
					CHANNELS 3 Zrotation Yrotation Xrotation
					JOINT RightArm
					{
						OFFSET -3.136600 1.374050 -0.404650
						CHANNELS 3 Zrotation Yrotation Xrotation
						JOINT RightForeArm
						{
							OFFSET -5.241900 -0.000000 -0.000000
							CHANNELS 3 Zrotation Yrotation Xrotation
							JOINT RightHand
							{
								OFFSET -3.444170 -0.000000 -0.000000
								CHANNELS 3 Zrotation Yrotation Xrotation
								JOINT RightFingerBase
								{
									OFFSET 0.000000 0.000000 0.000000
									CHANNELS 3 Zrotation Yrotation Xrotation
									JOINT RightHandIndex1
									{
										OFFSET -0.622530 -0.000000 -0.000000
										CHANNELS 3 Zrotation Yrotation Xrotation
										End Site
										{
											OFFSET 0.000000 0.000000 0.000000
										}
									}
								}
								JOINT RThumb
								{
									OFFSET 0.000000 0.000000 0.000000
									CHANNELS 3 Zrotation Yrotation Xrotation
									End Site
									{
										OFFSET 0.000000 0.000000 0.000000
									}
								}
							}
						}
					}
				}
			}
		}
	}
}
MOTION
Frames: 11
Frame Time: 0.008333
2.722566 16.871328 3.121115 -46.039394 -53.529536 42.320808 -14.236893 -3.608487 -1.002937 15.884030 -16.133735 -12.278448 0.827225 2.403856 40.659357 1.743231 9.022603 -17.241576 -1.558300 -0.000000 -43.755400 2.813961 5.800454 -1.786322 8.411105 -10.551789 -137.286033 -6.259115 -10.786237 109.730687 -1.116182 -1.028194 -25.300149 0.783500 0.000000 -66.948299 9.906738 -1.970646 7.376967 1.105118 -2.257450 -1.979632 -6.498992 -2.390668 -2.515038 5.651315 -3.919073 -5.104447 -1.086541 -0.111152 0.522606 0.000000 0.000000 0.000000 9.591383 -4.595535 2.580632 -33.287653 -11.317141 39.841456 -0.243695 -83.222592 0.020197 -9.127023 -10.136176 0.855299 0.184389 0.345016 -0.000000 0.000000 0.000000 0.000000 0.000000 0.000000 0.000000 0.237844 1.203420 1.818406 57.357659 -28.111970 34.145235 1.404034 55.935145 0.005809 -3.608774 5.992132 -0.192954 0.065957 -0.034491 0.000000 0.000000 0.000000 0.000000 0.000000 0.000000 0.000000 
2.735115 16.842045 3.115359 -45.757241 -53.577166 42.143894 -14.263400 -3.657906 -1.089860 15.761379 -16.083664 -12.695810 0.789472 2.458073 41.324047 1.723555 8.907465 -17.538259 -1.589100 0.000001 -43.884700 2.793850 5.798791 -1.705836 8.144049 -10.798248 -137.193214 -5.847779 -10.689315 107.822290 -1.291052 -2.032488 -25.026758 1.029501 0.000000 -65.899200 9.966447 -2.012194 7.463904 1.115996 -2.298236 -1.961310 -6.493167 -2.431120 -2.493653 5.615579 -3.908103 -5.098024 -1.087583 -0.111356 0.523671 0.000000 0.000000 0.000000 9.660275 -4.441932 2.566938 -33.200097 -11.254371 39.876726 -0.234936 -83.454171 0.020094 -9.134109 -10.109392 0.853779 0.185318 0.344808 -0.000000 0.000000 0.000000 0.000000 0.000000 0.000000 0.000000 0.198383 1.159818 1.803010 57.907484 -28.571529 33.786545 1.435456 55.621445 0.005999 -3.551582 6.032395 -0.191060 0.065560 -0.031825 0.000000 0.000000 0.000000 0.000000 0.000000 0.000000 0.000000 
2.749940 16.811973 3.111129 -45.486949 -53.643104 42.018527 -14.296628 -3.707497 -1.170394 15.643036 -16.055184 -13.168385 0.754108 2.515383 42.007920 1.709239 8.829587 -17.831918 -1.623699 0.000000 -43.999300 2.784686 5.789362 -1.597331 7.806116 -11.107649 -136.855347 -5.350067 -10.552924 105.394177 -1.509581 -3.295863 -24.540841 1.303900 0.000000 -64.482101 10.041945 -2.055760 7.515853 1.132170 -2.343982 -1.950238 -6.479876 -2.476167 -2.471388 5.557165 -3.931569 -5.097519 -1.086437 -0.111370 0.523754 0.000000 0.000000 0.000000 9.727893 -4.291104 2.545343 -33.159546 -11.119737 39.901269 -0.225709 -83.709025 0.020016 -9.144289 -10.077458 0.852159 0.186353 0.344653 -0.000000 0.000000 0.000000 0.000000 0.000000 0.000000 0.000000 0.127502 1.083081 1.786934 58.458773 -29.026349 33.432971 1.463484 55.385642 0.006165 -3.494252 6.062124 -0.188865 0.065200 -0.029392 0.000000 0.000000 0.000000 0.000000 0.000000 0.000000 0.000000 
2.767598 16.781323 3.108274 -45.245855 -53.737403 41.955748 -14.337388 -3.759856 -1.251657 15.527189 -16.049007 -13.671787 0.721343 2.577410 42.700216 1.702145 8.800867 -18.120117 -1.664000 0.000000 -44.074999 2.787087 5.771800 -1.459879 7.385117 -11.473252 -136.236443 -4.755331 -10.371452 102.366579 -1.766965 -4.743918 -23.891370 1.572900 -0.000000 -62.729000 10.134616 -2.099157 7.542725 1.153883 -2.391924 -1.942820 -6.458762 -2.522761 -2.443756 5.473662 -4.005816 -5.112775 -1.081810 -0.110922 0.519734 0.000000 0.000000 0.000000 9.787631 -4.114100 2.519031 -33.151310 -10.954628 39.924471 -0.215977 -83.983727 0.019947 -9.139161 -10.040937 0.848740 0.187095 0.344674 -0.000000 0.000000 0.000000 0.000000 0.000000 0.000000 0.000000 0.019709 0.958041 1.770060 58.996579 -29.450630 33.118171 1.485689 55.242058 0.006293 -3.448053 6.076780 -0.186770 0.064906 -0.027233 0.000000 0.000000 0.000000 0.000000 0.000000 0.000000 0.000000 
2.788601 16.750404 3.106547 -45.048259 -53.873808 41.963222 -14.384557 -3.817444 -1.341912 15.405812 -16.060355 -14.181501 0.691039 2.644995 43.388233 1.703642 8.830483 -18.398487 -1.711700 -0.000001 -44.095200 2.802871 5.745391 -1.290606 6.867952 -11.878249 -135.308986 -4.057640 -10.138283 98.666920 -2.053881 -6.273087 -23.152059 1.804101 -0.000000 -60.715901 10.238250 -2.140740 7.554072 1.179770 -2.439619 -1.936765 -6.429484 -2.568315 -2.410492 5.366416 -4.135080 -5.148025 -1.073052 -0.109879 0.510118 0.000000 0.000000 0.000000 9.844268 -3.900273 2.488656 -33.178634 -10.766662 39.947778 -0.205817 -84.275101 0.019876 -9.112177 -9.999111 0.842825 0.187394 0.344884 -0.000000 0.000000 0.000000 0.000000 0.000000 0.000000 0.000000 -0.125448 0.782822 1.752696 59.512259 -29.831597 32.863768 1.500595 55.197818 0.006386 -3.419394 6.080192 -0.185274 0.064670 -0.025418 0.000000 0.000000 0.000000 0.000000 0.000000 0.000000 0.000000 
2.813515 16.719726 3.105503 -44.898630 -54.071427 42.043966 -14.433205 -3.881879 -1.448199 15.259271 -16.092144 -14.678548 0.663367 2.717611 44.060250 1.716659 8.938019 -18.659828 -1.770200 -0.000000 -44.045800 2.836939 5.708666 -1.081301 6.231886 -12.296526 -134.052652 -3.256191 -9.843935 94.223629 -2.358102 -7.765369 -22.416098 1.977000 -0.000000 -58.511000 10.333516 -2.179135 7.553203 1.205445 -2.484862 -1.934949 -6.392424 -2.611025 -2.385291 5.244369 -4.297401 -5.192477 -1.062817 -0.108603 0.497951 0.000000 0.000000 0.000000 9.931452 -3.709309 2.446837 -33.290958 -10.449586 39.945053 -0.195185 -84.592386 0.019821 -9.085896 -9.949024 0.836410 0.187790 0.345056 -0.000000 0.000000 0.000000 0.000000 0.000000 0.000000 0.000000 -0.289540 0.587423 1.738771 60.003602 -30.199046 32.645939 1.509750 55.264251 0.006438 -3.389281 6.075456 -0.183476 0.064385 -0.024052 0.000000 0.000000 0.000000 0.000000 0.000000 0.000000 0.000000 
2.841957 16.690186 3.104500 -44.787341 -54.354193 42.187711 -14.476292 -3.955128 -1.582495 15.058460 -16.117288 -15.136692 0.635967 2.792930 44.688167 1.739832 9.113561 -18.897671 -1.837900 0.000000 -43.893000 2.895528 5.660914 -0.820017 5.447785 -12.700017 -132.452244 -2.359417 -9.473854 88.974717 -2.663722 -9.098407 -21.756986 2.081300 -0.000001 -56.381800 10.393413 -2.212933 7.544666 1.225206 -2.525012 -1.932013 -6.348836 -2.647313 -2.352185 5.116097 -4.512354 -5.258253 -1.047766 -0.106619 0.479419 0.000000 0.000000 0.000000 10.027778 -3.455117 2.401631 -33.434784 -10.133705 39.959443 -0.184218 -84.913088 0.019732 -9.027211 -9.895734 0.826699 0.187495 0.345309 -0.000000 0.000000 0.000000 0.000000 0.000000 0.000000 0.000000 -0.472404 0.343893 1.720838 60.460217 -30.502584 32.530503 1.509208 55.421933 0.006451 -3.382820 6.068446 -0.182879 0.064047 -0.023060 0.000000 0.000000 0.000000 0.000000 0.000000 0.000000 0.000000 
2.873733 16.662889 3.103136 -44.699883 -54.745194 42.395802 -14.504618 -4.037699 -1.749545 14.773924 -16.135851 -15.554790 0.608879 2.867589 45.258024 1.775945 9.374721 -19.102008 -1.917400 0.000000 -43.630400 2.987623 5.598623 -0.483014 4.470973 -13.053625 -130.488940 -1.378203 -9.005186 82.831564 -2.958293 -10.169483 -21.250550 2.122300 -0.000000 -54.350700 10.383841 -2.240760 7.513637 1.231405 -2.558328 -1.935740 -6.300852 -2.675919 -2.327787 4.998351 -4.743632 -5.325483 -1.032264 -0.104580 0.460539 0.000000 0.000000 0.000000 10.171034 -3.218612 2.343064 -33.666448 -9.677723 39.962687 -0.172710 -85.250430 0.019611 -8.974829 -9.836269 0.817188 0.187400 0.345240 -0.000000 0.000000 0.000000 0.000000 0.000000 0.000000 0.000000 -0.641249 0.095301 1.701933 60.886452 -30.790890 32.467935 1.502508 55.671047 0.006420 -3.366273 6.061112 -0.181781 0.063492 -0.022492 0.000000 0.000000 0.000000 0.000000 0.000000 0.000000 0.000000 
2.907979 16.638994 3.100904 -44.611834 -55.260244 42.646872 -14.510776 -4.131139 -1.960912 14.377694 -16.114765 -15.914395 0.579136 2.937907 45.736453 1.821408 9.696247 -19.263885 -2.003300 0.000001 -43.239600 3.118661 5.520279 -0.046770 3.266832 -13.340061 -128.127135 -0.333624 -8.401517 75.694657 -3.224879 -10.886486 -20.897775 2.098600 0.000000 -52.677600 10.276146 -2.262482 7.453553 1.218120 -2.583755 -1.942539 -6.250716 -2.694785 -2.292329 4.902221 -5.006947 -5.402794 -1.012832 -0.102060 0.438686 0.000000 0.000000 0.000000 10.327796 -2.901780 2.280804 -33.918486 -9.243666 40.012945 -0.161066 -85.573712 0.019406 -8.894895 -9.779491 0.805382 0.186662 0.344968 -0.000000 0.000000 0.000000 0.000000 0.000000 0.000000 0.000000 -0.794047 -0.188165 1.671763 61.277651 -31.014750 32.518918 1.486774 55.970250 0.006354 -3.365350 6.067780 -0.181884 0.062711 -0.022221 0.000000 0.000000 0.000000 0.000000 0.000000 0.000000 0.000000 
2.944004 16.619764 3.098120 -44.526786 -55.904665 42.969122 -14.491971 -4.237795 -2.218867 13.875544 -16.044545 -16.233839 0.548040 3.000442 46.109207 1.876270 10.077143 -19.372930 -2.093300 -0.000000 -42.722500 3.291242 5.420881 0.531480 1.767655 -13.530304 -125.279667 0.745058 -7.597288 67.368077 -3.457975 -11.243868 -20.629230 2.005600 0.000000 -51.382100 10.058400 -2.275925 7.328703 1.182402 -2.599966 -1.965509 -6.201771 -2.703365 -2.263482 4.841915 -5.259105 -5.464297 -0.995146 -0.099935 0.421961 0.000000 0.000000 0.000000 10.520904 -2.598608 2.204272 -34.243038 -8.673313 40.080859 -0.149047 -85.901627 0.019141 -8.838446 -9.723399 0.795773 0.186446 0.344025 -0.000000 0.000000 0.000000 0.000000 0.000000 0.000000 0.000000 -0.898274 -0.457892 1.633377 61.639927 -31.235005 32.615303 1.467482 56.310841 0.006259 -3.338688 6.085308 -0.180887 0.061569 -0.022187 0.000000 0.000000 0.000000 0.000000 0.000000 0.000000 0.000000 
2.980984 16.606239 3.095074 -44.443159 -56.647763 43.343736 -14.452001 -4.360935 -2.533210 13.289848 -15.908726 -16.480655 0.514604 3.054769 46.343020 1.934479 10.476567 -19.420071 -2.176900 0.000000 -42.110200 3.491083 5.305875 1.273976 -0.052944 -13.643878 -121.771015 1.794009 -6.488303 57.595036 -3.642512 -11.289219 -20.224385 1.811100 0.000000 -50.667400 9.746708 -2.285315 7.135695 1.128203 -2.610603 -2.001027 -6.156872 -2.704769 -2.221623 4.821088 -5.515167 -5.516028 -0.976686 -0.097893 0.408335 0.000000 0.000000 0.000000 10.700559 -2.217852 2.124534 -34.570887 -8.141492 40.226293 -0.137590 -86.198752 0.018775 -8.775856 -9.677996 0.786465 0.185978 0.342590 -0.000000 0.000000 0.000000 0.000000 0.000000 0.000000 0.000000 -0.958989 -0.746300 1.577492 61.973085 -31.412040 32.792793 1.443702 56.642583 0.006144 -3.306812 6.129891 -0.180493 0.060041 -0.022200 0.000000 0.000000 0.000000 0.000000 0.000000 0.000000 0.000000 
